<svg width="94" height="110" viewBox="0 0 94 110" fill="none" xmlns="http://www.w3.org/2000/svg">
<g clip-path="url(#clip0_8_84)">
<path d="M5.875 19.4424C11.0744 16.8987 18.5298 14.1556 25.7795 13.3031C33.5933 12.3818 40.2202 13.7362 44.0625 18.4731V85.4768C38.5694 81.8331 31.6075 81.3312 25.1861 82.0874C18.2536 82.9124 11.2624 85.2568 5.875 87.6631V19.4424ZM49.9375 18.4731C53.7798 13.7362 60.4068 12.3818 68.2205 13.3031C75.4703 14.1556 82.9256 16.8987 88.125 19.4424V87.6631C82.7318 85.2568 75.7464 82.9056 68.8139 82.0943C62.3866 81.3312 55.4306 81.8262 49.9375 85.4768V18.4731ZM47 12.2581C41.2131 6.43494 32.8236 5.56869 25.1861 6.46244C16.2914 7.51432 7.31438 11.0824 1.72138 14.0593C1.20819 14.3324 0.773005 14.7726 0.467773 15.3273C0.162542 15.882 0.000156107 16.5277 0 17.1874L0 92.8124C0.000136077 93.3876 0.123593 93.9535 0.359063 94.4584C0.594533 94.9632 0.934488 95.3909 1.34779 95.7021C1.76109 96.0134 2.23452 96.1983 2.72473 96.24C3.21493 96.2816 3.70623 96.1787 4.15363 95.9406C9.33537 93.1906 17.6838 89.8837 25.7736 88.9281C34.0515 87.9518 40.9899 89.5262 44.7088 94.9574C44.984 95.3589 45.3328 95.6829 45.7293 95.9056C46.1259 96.1282 46.5602 96.2438 47 96.2438C47.4398 96.2438 47.8741 96.1282 48.2706 95.9056C48.6672 95.6829 49.016 95.3589 49.2913 94.9574C53.0101 89.5262 59.9485 87.9518 68.2205 88.9281C76.3163 89.8837 84.6705 93.1906 89.8464 95.9406C90.2938 96.1787 90.7851 96.2816 91.2753 96.24C91.7655 96.1983 92.2389 96.0134 92.6522 95.7021C93.0655 95.3909 93.4055 94.9632 93.6409 94.4584C93.8764 93.9535 93.9999 93.3876 94 92.8124V17.1874C93.9998 16.5277 93.8375 15.882 93.5322 15.3273C93.227 14.7726 92.7918 14.3324 92.2786 14.0593C86.6856 11.0824 77.7086 7.51432 68.8139 6.46244C61.1764 5.56182 52.7869 6.43494 47 12.2581Z" fill="#FF720C"/>
</g>
<defs>
<clipPath id="clip0_8_84">
<rect width="94" height="110" fill="white"/>
</clipPath>
</defs>
</svg>
